With: Kevin Bacon, Christian Slater en Gary Oldman

1938. Henri Young doet een ontsnappingspoging uit gevangeniseiland Alcatraz, maar wordt gepakt en moet drie jaar in een isoleercel doorbrengen onder erbarmelijke omstandigheden. De tweede ontsnapte gevangene die ook werd opgepakt wist echter een regeling te treffen en werd menselijk behandeld. De dag dat hij eindelijk uit de isoleercel mag, pakt hij in de eetzaal een lepel en vermoordt de ander. De advocaat die hij aangewezen krijgt is groentje James Stamphill, die niet wil dat Henri naar de gaskamer gaat. In plaats daarvan klaagt hij Alcatraz aan, omdat ze een eenvoudige dief tot moordenaar maakte.

An eager and idealistic young attorney defends an Alcatraz prisoner accused of murdering a fellow inmate. The extenuating circumstances: his client had just spent over three years in solitary confinement. 

------------------ Dutch Friends ------------------
You can find my Friends at: http://www.Film-Test.nl 
------ They got my dutchs subs ---- and more ------

General:

Complete name                    : Murder in the First\Murder in the First.avi
Format                           : AVI
Format/Info                      : Audio Video Interleave
File size                        : 1.27 GiB
Duration                         : 1h 57mn
Overall bit rate                 : 1 549 Kbps

Video:

Format                           : MPEG-4 Visual
Format profile                   : Simple@L3
Format settings, BVOP            : No
Format settings, QPel            : No
Format settings, GMC             : No warppoints
Format settings, Matrix          : Default (H.263)
Codec ID                         : XVID
Codec ID/Hint                    : XviD
Duration                         : 1h 57mn
Bit rate                         : 1 346 Kbps
Width                            : 652 pixels
Height                           : 352 pixels
Display aspect ratio             : 1.852
Frame rate                       : 25.000 fps
Color space                      : YUV
Chroma subsampling               : 4:2:0
Bit depth                        : 8 bits
Scan type                        : Progressive
Bits/(Pixel*Frame)               : 0.235
Stream size                      : 1.11 GiB (87%)
Writing library                  : XviD 1.1.2 (UTC 2006-11-01)

Audio:

Format                           : AC-3
Format/Info                      : Audio Coding 3
Mode extension                   : CM (complete main)
Codec ID                         : 2000
Duration                         : 1h 57mn
Bit rate mode                    : Constant
Bit rate                         : 192 Kbps
Channel(s)                       : 2 channels
Channel positions                : Front: L R
Sampling rate                    : 48.0 KHz
Bit depth                        : 16 bits
Stream size                      : 161 MiB (12%)
Alignment                        : Aligned on interleaves
Interleave, duration             : 32 ms (0.80 video frame)
Interleave, preload duration     : 128 ms

